<?xml version="1.0" encoding="UTF-8" standalone="no"?>
<!-- Created with Inkscape (http://www.inkscape.org/) -->

<svg
   xmlns:dc="http://purl.org/dc/elements/1.1/"
   xmlns:cc="http://creativecommons.org/ns#"
   xmlns:rdf="http://www.w3.org/1999/02/22-rdf-syntax-ns#"
   xmlns:svg="http://www.w3.org/2000/svg"
   xmlns="http://www.w3.org/2000/svg"
   xmlns:sodipodi="http://sodipodi.sourceforge.net/DTD/sodipodi-0.dtd"
   xmlns:inkscape="http://www.inkscape.org/namespaces/inkscape"
   width="297mm"
   height="210mm"
   viewBox="0 0 297 210"
   version="1.1"
   id="svg8"
   inkscape:version="0.92.5 (2060ec1f9f, 2020-04-08)"
   sodipodi:docname="slide-1.svg">
  <defs
     id="defs2">
    <marker
       inkscape:stockid="Arrow2Lend"
       orient="auto"
       refY="0.0"
       refX="0.0"
       id="Arrow2Lend"
       style="overflow:visible;"
       inkscape:isstock="true">
      <path
         id="path896"
         style="fill-rule:evenodd;stroke-width:0.625;stroke-linejoin:round;stroke:#000000;stroke-opacity:1;fill:#000000;fill-opacity:1"
         d="M 8.7185878,4.0337352 L -2.2072895,0.016013256 L 8.7185884,-4.0017078 C 6.9730900,-1.6296469 6.9831476,1.6157441 8.7185878,4.0337352 z "
         transform="scale(1.1) rotate(180) translate(1,0)" />
    </marker>
  </defs>
  <sodipodi:namedview
     id="base"
     pagecolor="#ffffff"
     bordercolor="#666666"
     borderopacity="1.0"
     inkscape:pageopacity="0.0"
     inkscape:pageshadow="2"
     inkscape:zoom="1.4"
     inkscape:cx="450.97936"
     inkscape:cy="396.72356"
     inkscape:document-units="mm"
     inkscape:current-layer="layer1"
     showgrid="false"
     inkscape:window-width="3840"
     inkscape:window-height="2272"
     inkscape:window-x="0"
     inkscape:window-y="54"
     inkscape:window-maximized="1" />
  <metadata
     id="metadata5">
    <rdf:RDF>
      <cc:Work
         rdf:about="">
        <dc:format>image/svg+xml</dc:format>
        <dc:type
           rdf:resource="http://purl.org/dc/dcmitype/StillImage" />
        <dc:title></dc:title>
      </cc:Work>
    </rdf:RDF>
  </metadata>
  <g
     inkscape:label="Layer 1"
     inkscape:groupmode="layer"
     id="layer1"
     transform="translate(0,-87)">
    <text
       xml:space="preserve"
       style="font-style:normal;font-variant:normal;font-weight:normal;font-stretch:normal;font-size:10.58333302px;line-height:1.25;font-family:Manjari;-inkscape-font-specification:'Manjari, Normal';font-variant-ligatures:normal;font-variant-caps:normal;font-variant-numeric:normal;font-feature-settings:normal;text-align:start;letter-spacing:0px;word-spacing:0px;writing-mode:lr-tb;text-anchor:start;fill:#000000;fill-opacity:1;stroke:none;stroke-width:0.26458332"
       x="5.8586292"
       y="107.82292"
       id="text817"><tspan
         sodipodi:role="line"
         id="tspan815"
         x="5.8586292"
         y="107.82292"
         style="font-style:normal;font-variant:normal;font-weight:normal;font-stretch:normal;font-size:22.57777786px;font-family:Manjari;-inkscape-font-specification:'Manjari, Normal';font-variant-ligatures:normal;font-variant-caps:normal;font-variant-numeric:normal;font-feature-settings:normal;text-align:start;writing-mode:lr-tb;text-anchor:start;stroke-width:0.26458332">FairSafe</tspan></text>
    <text
       xml:space="preserve"
       style="font-style:normal;font-weight:normal;font-size:10.58333302px;line-height:1.25;font-family:sans-serif;letter-spacing:0px;word-spacing:0px;fill:#000000;fill-opacity:1;stroke:none;stroke-width:0.26458332"
       x="208.64285"
       y="105.88609"
       id="text821"><tspan
         sodipodi:role="line"
         id="tspan819"
         x="208.64285"
         y="105.88609"
         style="stroke-width:0.26458332">a user story</tspan></text>
    <text
       xml:space="preserve"
       style="font-style:normal;font-weight:normal;font-size:10.58333302px;line-height:1.25;font-family:sans-serif;letter-spacing:0px;word-spacing:0px;fill:#000000;fill-opacity:1;stroke:none;stroke-width:0.26458332"
       x="60.629005"
       y="144.7867"
       id="text821-5"><tspan
         sodipodi:role="line"
         id="tspan819-7"
         x="60.629005"
         y="144.7867"
         style="stroke-width:0.26458332">as anybody I handover personal data</tspan><tspan
         sodipodi:role="line"
         x="60.629005"
         y="158.01587"
         style="stroke-width:0.26458332"
         id="tspan863">to third parties</tspan><tspan
         sodipodi:role="line"
         x="60.629005"
         y="171.24503"
         style="stroke-width:0.26458332"
         id="tspan1207">data is siloed in databases</tspan><tspan
         sodipodi:role="line"
         x="60.629005"
         y="184.4742"
         style="stroke-width:0.26458332"
         id="tspan1209">with legal but difficult access</tspan></text>
    <path
       id="path841"
       d="m 25.612161,186.34752 c -0.49785,0 -0.90176,0.40354 -0.90176,0.90176 0.0428,2.71469 -0.30585,5.33168 -1.04079,7.94867 -0.10257,0.36521 0.0808,1.14561 0.8687,1.14561 0.39377,0 0.7556,-0.26001 0.86757,-0.65829 0.50837,-1.80014 1.16628,-4.71208 1.10767,-8.43599 3.7e-4,-0.49784 -0.40317,-0.90176 -0.90139,-0.90176 z m -0.0323,-3.07088 c -2.30175,-0.003 -3.90801,1.76859 -3.87608,3.7983 0.0282,1.80127 -0.1409,3.60367 -0.50235,5.3561 -0.10107,0.4877 0.21304,0.96526 0.70037,1.06558 0.49033,0.10032 0.96451,-0.21267 1.06558,-0.70037 0.38851,-1.88205 0.56999,-3.81671 0.53993,-5.74949 -0.0154,-0.97503 0.74846,-1.97223 2.04587,-1.96659 1.17643,0.0177 2.14733,0.95211 2.16498,2.0842 0.0289,1.8054 -0.10558,3.61945 -0.39865,5.39367 -0.0815,0.4907 0.25137,0.95511 0.74245,1.03627 0.75034,0.12512 1.00735,-0.56736 1.03628,-0.74283 0.31111,-1.87979 0.45313,-3.80281 0.42345,-5.71529 -0.0331,-2.0966 -1.80127,-3.82799 -3.94183,-3.85955 z m -4.159,-0.7432 c -0.38701,-0.31336 -0.95324,-0.2555 -1.26848,0.13076 -0.96263,1.18356 -1.48002,2.67823 -1.45597,4.20822 0.0222,1.41201 -0.0928,2.82815 -0.3423,4.21011 -0.0879,0.49033 0.23709,0.95925 0.72742,1.04792 0.75561,0.13151 1.01712,-0.55647 1.04793,-0.72742 0.27015,-1.49693 0.39452,-3.03068 0.37047,-4.55879 -0.0177,-1.12269 0.34568,-2.17475 1.05206,-3.04232 0.31374,-0.38625 0.25512,-0.95399 -0.13113,-1.26848 z m 4.11316,-2.34195 c -0.57901,-0.0154 -1.15989,0.0541 -1.72011,0.18674 -0.48432,0.11498 -0.78416,0.60043 -0.66994,1.0855 0.11498,0.48432 0.60118,0.78265 1.0855,0.66993 0.41519,-0.0981 0.84428,-0.14165 1.2775,-0.13865 2.83416,0.0425 5.17499,2.31077 5.2182,5.05664 0.0222,1.42328 -0.0481,2.85971 -0.20966,4.26946 -0.0564,0.49485 0.29871,0.94235 0.79317,0.99871 0.62823,0.0733 0.9585,-0.44637 0.9987,-0.79318 a 34.907978,34.907978 0 0 0 0.22131,-4.50317 c -0.0586,-3.71038 -3.19637,-6.77562 -6.99467,-6.83198 z m 9.47114,4.56329 c -0.10746,-0.48545 -0.58277,-0.79655 -1.07498,-0.68646 -0.4862,0.10746 -0.79355,0.5884 -0.68609,1.07497 0.17697,0.80445 0.18449,1.40562 0.1766,2.31453 -0.004,0.49859 0.3964,0.90514 0.89424,0.90927 h 0.007 c 0.49485,0 0.89763,-0.39865 0.90177,-0.89424 0.007,-0.83338 0.015,-1.65737 -0.21906,-2.71807 z m -1.50745,-3.40866 c -1.82982,-2.60722 -4.82405,-4.19169 -8.0099,-4.23941 -2.62225,-0.0315 -5.04762,0.9352 -6.85152,2.73986 -1.74228,1.74453 -2.68124,4.06169 -2.64216,6.52688 l -0.005,0.8067 c -0.0147,0.49785 0.37686,0.91341 0.87471,0.92769 0.009,8.6e-4 0.018,8.6e-4 0.0271,8.6e-4 0.48545,0 0.88635,-0.38701 0.90063,-0.87547 l 0.006,-0.88823 c -0.0312,-1.97261 0.71991,-3.82723 2.11464,-5.22271 1.45634,-1.45785 3.43195,-2.24201 5.54884,-2.21157 2.60948,0.0387 5.06227,1.33611 6.56108,3.47141 0.28593,0.40805 0.84765,0.50536 1.2557,0.22018 0.4073,-0.28631 0.50574,-0.84879 0.21943,-1.25608 z"
       inkscape:connector-curvature="0"
       style="fill:currentColor;stroke-width:0.03757344" />
    <path
       id="path852"
       d="m 20.618603,146.11191 c 2.022231,0 3.666368,-1.64414 3.666368,-3.66637 0,-2.02223 -1.644137,-3.66637 -3.666368,-3.66637 -2.022232,0 -3.666369,1.64414 -3.666369,3.66637 0,2.02223 1.644137,3.66637 3.666369,3.66637 z m 25.664579,0 c 2.02223,0 3.666369,-1.64414 3.666369,-3.66637 0,-2.02223 -1.644139,-3.66637 -3.666369,-3.66637 -2.022231,0 -3.666368,1.64414 -3.666368,3.66637 0,2.02223 1.644137,3.66637 3.666368,3.66637 z m 1.833184,1.83318 h -3.666367 c -1.008252,0 -1.919117,0.40674 -2.583644,1.06554 2.308666,1.26604 3.947074,3.5518 4.302254,6.2672 h 3.780942 c 1.013979,0 1.833183,-0.8192 1.833183,-1.83318 v -1.83319 c 0,-2.02223 -1.644137,-3.66637 -3.666368,-3.66637 z m -14.665473,0 c 3.546064,0 6.416145,-2.87008 6.416145,-6.41614 0,-3.54607 -2.870081,-6.41615 -6.416145,-6.41615 -3.546066,0 -6.416145,2.87008 -6.416145,6.41615 0,3.54606 2.870079,6.41614 6.416145,6.41614 z m 4.399643,1.83319 h -0.475484 c -1.191569,0.57287 -2.514899,0.91659 -3.924159,0.91659 -1.409261,0 -2.726862,-0.34372 -3.92416,-0.91659 h -0.475482 c -3.643454,0 -6.599464,2.95601 -6.599464,6.59946 v 1.64987 c 0,1.5181 1.231671,2.74977 2.749776,2.74977 h 16.49866 c 1.518104,0 2.749776,-1.23167 2.749776,-2.74977 v -1.64987 c 0,-3.64345 -2.95601,-6.59946 -6.599463,-6.59946 z m -12.815105,-0.76765 c -0.664529,-0.6588 -1.575393,-1.06554 -2.583644,-1.06554 h -3.666369 c -2.022231,0 -3.666368,1.64414 -3.666368,3.66637 v 1.83319 c 0,1.01398 0.819204,1.83318 1.833184,1.83318 h 3.775214 c 0.360908,-2.7154 1.999317,-5.00116 4.307983,-6.2672 z"
       inkscape:connector-curvature="0"
       style="fill:currentColor;stroke-width:0.057287" />
    <path
       id="path829"
       d="M 76.08346,199.21755 H 56.019222 c -1.107712,0 -2.006423,0.89871 -2.006423,2.00642 v 13.37616 c 0,1.10771 0.898711,2.00643 2.006423,2.00643 h 8.025698 l -0.66881,2.00642 h -3.00964 c -0.55594,0 -1.00321,0.44727 -1.00321,1.00321 0,0.55594 0.44727,1.00321 1.00321,1.00321 H 71.7362 c 0.55596,0 1.00322,-0.44727 1.00322,-1.00321 0,-0.55594 -0.44726,-1.00321 -1.00322,-1.00321 h -3.00963 l -0.66881,-2.00642 h 8.0257 c 1.10771,0 2.00642,-0.89872 2.00642,-2.00643 v -13.37616 c 0,-1.10771 -0.89871,-2.00642 -2.00642,-2.00642 z m -0.66881,14.71377 H 56.688033 V 201.89278 H 75.41465 Z"
       inkscape:connector-curvature="0"
       style="fill:currentColor;stroke-width:0.04180049" />
    <path
       id="path840"
       d="m 76.748288,236.83129 2.10593,-9.26605 c 0.15205,-0.66903 -0.35648,-1.30612 -1.04256,-1.30612 h -17.49778 l -0.40833,-1.9962 c -0.10175,-0.49757 -0.539573,-0.85489 -1.047468,-0.85489 h -4.567495 c -0.590488,0 -1.06916,0.47867 -1.06916,1.06916 v 0.71277 c 0,0.5905 0.478672,1.06916 1.06916,1.06916 h 3.113171 l 3.129432,15.29946 c -0.74868,0.43056 -1.253191,1.23786 -1.253191,2.16349 0,1.37778 1.116921,2.49471 2.494711,2.49471 1.37779,0 2.4947,-1.11693 2.4947,-2.49471 0,-0.69825 -0.2872,-1.3291 -0.74949,-1.78194 h 9.33943 c -0.46223,0.45284 -0.74943,1.08369 -0.74943,1.78194 0,1.37778 1.11691,2.49471 2.4947,2.49471 1.37779,0 2.49471,-1.11693 2.49471,-2.49471 0,-0.98773 -0.57413,-1.84128 -1.40679,-2.24546 l 0.24578,-1.08146 c 0.15204,-0.66902 -0.35648,-1.30611 -1.04257,-1.30611 h -11.95758 l -0.29156,-1.42555 h 13.05912 c 0.49921,0 0.93195,-0.34542 1.04256,-0.8322 z"
       inkscape:connector-curvature="0"
       style="fill:currentColor;stroke-width:0.04454833" />
    <path
       id="path862"
       d="m 79.260287,255.30111 v 0.88059 a 0.44029826,0.44029826 0 0 1 -0.440297,0.4403 h -1.320895 v 0.66045 c 0,0.36473 -0.295716,0.66045 -0.660448,0.66045 H 55.264032 c -0.364731,0 -0.660447,-0.29572 -0.660447,-0.66045 V 256.622 h -1.320894 a 0.44029826,0.44029826 0 0 1 -0.440299,-0.4403 v -0.88059 a 0.44029826,0.44029826 0 0 1 0.271939,-0.40684 l 12.76865,-4.84328 a 0.4400781,0.4400781 0 0 1 0.336717,0 l 12.76865,4.84328 a 0.44029826,0.44029826 0 0 1 0.271939,0.40684 z m -1.320895,16.73133 H 54.163288 c -0.72952,0 -1.320895,0.59137 -1.320895,1.32089 v 0.8806 a 0.44029826,0.44029826 0 0 0 0.440299,0.4403 H 78.81999 a 0.44029826,0.44029826 0 0 0 0.440297,-0.4403 v -0.8806 c 0,-0.72952 -0.591374,-1.32089 -1.320895,-1.32089 z M 57.245374,258.82349 v 10.56716 h -1.981342 c -0.364731,0 -0.660447,0.29572 -0.660447,0.66044 v 1.10075 h 22.89551 v -1.10075 c 0,-0.36472 -0.295716,-0.66044 -0.660448,-0.66044 H 74.857306 V 258.82349 H 71.33492 v 10.56716 h -3.522387 v -10.56716 h -3.522385 v 10.56716 h -3.522387 v -10.56716 z"
       inkscape:connector-curvature="0"
       style="fill:currentColor;stroke-width:0.05503727" />
    <path
       style="fill:none;stroke:#000000;stroke-width:1.46500003;stroke-linecap:butt;stroke-linejoin:miter;stroke-miterlimit:4;stroke-dasharray:none;stroke-opacity:1;marker-end:url(#Arrow2Lend)"
       d="m 25.891368,163.76339 c -30.9955359,37.83768 -3.282287,63.69429 3.023811,71.81547"
       id="path873"
       inkscape:connector-curvature="0"
       sodipodi:nodetypes="cc" />
    <text
       xml:space="preserve"
       style="font-style:normal;font-weight:normal;font-size:51.00708389px;line-height:1.25;font-family:sans-serif;letter-spacing:0px;word-spacing:0px;fill:#000000;fill-opacity:1;stroke:none;stroke-width:1.275177"
       x="49.802341"
       y="166.67465"
       id="text1141"
       transform="scale(0.6391755,1.5645155)"><tspan
         sodipodi:role="line"
         id="tspan1139"
         x="49.802341"
         y="166.67465"
         style="stroke-width:1.275177">{</tspan></text>
    <g
       id="g1186"
       transform="translate(-24.190476,0.75595238)">
      <path
         style="fill:currentColor;stroke-width:0.03382726"
         inkscape:connector-curvature="0"
         d="m 133.27912,203.62594 v 1.57312 c 0,1.38634 -3.33629,2.51702 -7.44848,2.51702 -4.1122,0 -7.44849,-1.13068 -7.44849,-2.51702 v -1.57312 c 0,-1.38632 3.33629,-2.51702 7.44849,-2.51702 4.11219,0 7.44848,1.13069 7.44848,2.51702 z m 0,3.53955 v 3.53954 c 0,1.38634 -3.33629,2.51702 -7.44848,2.51702 -4.1122,0 -7.44849,-1.13068 -7.44849,-2.51702 v -3.53954 c 1.60025,1.14052 4.52921,1.67147 7.44849,1.67147 2.91927,0 5.8482,-0.53095 7.44848,-1.67147 z m 0,5.50596 v 3.53954 c 0,1.38634 -3.33629,2.51703 -7.44848,2.51703 -4.1122,0 -7.44849,-1.13069 -7.44849,-2.51703 v -3.53954 c 1.60025,1.14053 4.52921,1.67147 7.44849,1.67147 2.91927,0 5.8482,-0.53094 7.44848,-1.67147 z"
         id="path851" />
      <path
         style="fill:currentColor;stroke-width:0.03757344"
         inkscape:connector-curvature="0"
         d="m 149.68328,209.54123 c -0.49785,0 -0.90176,0.40354 -0.90176,0.90176 0.0428,2.71469 -0.30585,5.33169 -1.04079,7.94868 -0.10257,0.36521 0.0808,1.14561 0.8687,1.14561 0.39377,0 0.7556,-0.26001 0.86757,-0.65829 0.50837,-1.80014 1.16628,-4.71208 1.10767,-8.436 3.7e-4,-0.49784 -0.40317,-0.90176 -0.90139,-0.90176 z m -0.0323,-3.07088 c -2.30175,-0.003 -3.90801,1.76859 -3.87608,3.7983 0.0282,1.80127 -0.1409,3.60368 -0.50235,5.35611 -0.10107,0.4877 0.21304,0.96526 0.70037,1.06558 0.49033,0.10032 0.96451,-0.21267 1.06558,-0.70037 0.38851,-1.88205 0.56999,-3.81672 0.53993,-5.7495 -0.0154,-0.97503 0.74846,-1.97223 2.04587,-1.96659 1.17643,0.0177 2.14733,0.95211 2.16498,2.0842 0.0289,1.8054 -0.10558,3.61946 -0.39865,5.39368 -0.0815,0.4907 0.25137,0.95511 0.74245,1.03627 0.75034,0.12512 1.00735,-0.56736 1.03628,-0.74283 0.31111,-1.87979 0.45313,-3.80282 0.42345,-5.7153 -0.0331,-2.0966 -1.80127,-3.82799 -3.94183,-3.85955 z m -4.159,-0.7432 c -0.38701,-0.31336 -0.95324,-0.2555 -1.26848,0.13076 -0.96263,1.18356 -1.48002,2.67823 -1.45597,4.20822 0.0222,1.41201 -0.0928,2.82815 -0.3423,4.21012 -0.0879,0.49033 0.23709,0.95925 0.72742,1.04792 0.75561,0.13151 1.01712,-0.55647 1.04793,-0.72742 0.27015,-1.49694 0.39452,-3.03069 0.37047,-4.5588 -0.0177,-1.12269 0.34568,-2.17475 1.05206,-3.04232 0.31374,-0.38625 0.25512,-0.95399 -0.13113,-1.26848 z m 4.11316,-2.34195 c -0.57901,-0.0154 -1.15989,0.0541 -1.72011,0.18674 -0.48432,0.11498 -0.78416,0.60043 -0.66994,1.0855 0.11498,0.48432 0.60118,0.78265 1.0855,0.66993 0.41519,-0.0981 0.84428,-0.14165 1.2775,-0.13865 2.83416,0.0425 5.17499,2.31077 5.2182,5.05664 0.0222,1.42328 -0.0481,2.85971 -0.20966,4.26947 -0.0564,0.49485 0.29871,0.94235 0.79317,0.99871 0.62823,0.0733 0.9585,-0.44637 0.9987,-0.79318 a 34.907979,34.907979 0 0 0 0.22131,-4.50318 c -0.0586,-3.71038 -3.19637,-6.77562 -6.99467,-6.83198 z m 9.47114,4.56329 c -0.10746,-0.48545 -0.58277,-0.79655 -1.07498,-0.68646 -0.4862,0.10746 -0.79355,0.5884 -0.68609,1.07497 0.17697,0.80445 0.18449,1.40562 0.1766,2.31453 -0.004,0.49859 0.3964,0.90514 0.89424,0.90927 h 0.007 c 0.49485,0 0.89763,-0.39865 0.90177,-0.89424 0.007,-0.83338 0.015,-1.65737 -0.21906,-2.71807 z m -1.50745,-3.40866 c -1.82982,-2.60722 -4.82405,-4.19169 -8.0099,-4.23941 -2.62225,-0.0315 -5.04762,0.9352 -6.85152,2.73986 -1.74228,1.74453 -2.68124,4.06169 -2.64216,6.52688 l -0.005,0.8067 c -0.0147,0.49785 0.37686,0.91341 0.87471,0.92769 0.009,8.5e-4 0.018,8.5e-4 0.0271,8.5e-4 0.48545,0 0.88635,-0.38701 0.90063,-0.87547 l 0.006,-0.88823 c -0.0312,-1.9726 0.71991,-3.82722 2.11464,-5.2227 1.45634,-1.45785 3.43195,-2.24201 5.54884,-2.21157 2.60948,0.0387 5.06227,1.33611 6.56108,3.47141 0.28593,0.40805 0.84765,0.50536 1.2557,0.22018 0.4073,-0.28631 0.50574,-0.84879 0.21943,-1.25608 z"
         id="path841-5" />
    </g>
    <g
       id="g1190"
       transform="translate(-59.408796,0.75595238)">
      <path
         style="fill:currentColor;stroke-width:0.03382726"
         inkscape:connector-curvature="0"
         d="m 168.49744,228.51987 v 1.57312 c 0,1.38634 -3.33629,2.51702 -7.44848,2.51702 -4.1122,0 -7.44849,-1.13068 -7.44849,-2.51702 v -1.57312 c 0,-1.38633 3.33629,-2.51702 7.44849,-2.51702 4.11219,0 7.44848,1.13069 7.44848,2.51702 z m 0,3.53955 v 3.53954 c 0,1.38634 -3.33629,2.51702 -7.44848,2.51702 -4.1122,0 -7.44849,-1.13068 -7.44849,-2.51702 v -3.53954 c 1.60025,1.14052 4.52921,1.67147 7.44849,1.67147 2.91927,0 5.8482,-0.53095 7.44848,-1.67147 z m 0,5.50596 v 3.53954 c 0,1.38634 -3.33629,2.51703 -7.44848,2.51703 -4.1122,0 -7.44849,-1.13069 -7.44849,-2.51703 v -3.53954 c 1.60025,1.14053 4.52921,1.67147 7.44849,1.67147 2.91927,0 5.8482,-0.53094 7.44848,-1.67147 z"
         id="path851-6" />
      <path
         style="fill:currentColor;stroke-width:0.03757344"
         inkscape:connector-curvature="0"
         d="m 184.9016,234.43516 c -0.49785,0 -0.90176,0.40354 -0.90176,0.90176 0.0428,2.71469 -0.30585,5.33169 -1.04079,7.94868 -0.10257,0.36521 0.0808,1.14561 0.8687,1.14561 0.39377,0 0.7556,-0.26001 0.86757,-0.65829 0.50837,-1.80014 1.16628,-4.71208 1.10767,-8.436 2.6e-4,-0.49784 -0.40317,-0.90176 -0.90139,-0.90176 z m -0.0323,-3.07088 c -2.30175,-0.003 -3.90801,1.76859 -3.87608,3.7983 0.0282,1.80127 -0.1409,3.60368 -0.50235,5.35611 -0.10107,0.4877 0.21304,0.96526 0.70037,1.06558 0.49033,0.10032 0.96451,-0.21267 1.06558,-0.70037 0.38851,-1.88205 0.56999,-3.81672 0.53993,-5.7495 -0.0154,-0.97503 0.74846,-1.97223 2.04587,-1.96659 1.17643,0.0177 2.14733,0.95211 2.16498,2.0842 0.0289,1.8054 -0.10558,3.61946 -0.39865,5.39368 -0.0815,0.4907 0.25137,0.95511 0.74245,1.03627 0.75034,0.12512 1.00735,-0.56736 1.03628,-0.74283 0.31111,-1.87979 0.45313,-3.80282 0.42345,-5.7153 -0.0331,-2.0966 -1.80127,-3.82799 -3.94183,-3.85955 z m -4.159,-0.7432 c -0.38701,-0.31336 -0.95324,-0.2555 -1.26848,0.13076 -0.96263,1.18356 -1.48002,2.67823 -1.45597,4.20822 0.0222,1.41201 -0.0928,2.82815 -0.3423,4.21012 -0.0879,0.49033 0.23709,0.95925 0.72742,1.04792 0.75561,0.13151 1.01712,-0.55647 1.04793,-0.72742 0.27015,-1.49694 0.39452,-3.03069 0.37047,-4.5588 -0.0177,-1.12269 0.34568,-2.17475 1.05206,-3.04232 0.31374,-0.38625 0.25512,-0.95399 -0.13113,-1.26848 z m 4.11316,-2.34195 c -0.57901,-0.0154 -1.15989,0.0541 -1.72011,0.18674 -0.48432,0.11498 -0.78416,0.60043 -0.66994,1.0855 0.11498,0.48432 0.60118,0.78265 1.0855,0.66993 0.41519,-0.0981 0.84428,-0.14165 1.2775,-0.13865 2.83416,0.0425 5.17499,2.31077 5.2182,5.05664 0.0222,1.42328 -0.0481,2.85971 -0.20966,4.26947 -0.0564,0.49485 0.29871,0.94235 0.79317,0.99871 0.62823,0.0733 0.9585,-0.44637 0.9987,-0.79318 a 34.907979,34.907979 0 0 0 0.22131,-4.50318 c -0.0586,-3.71038 -3.19637,-6.77562 -6.99467,-6.83198 z m 9.47114,4.56329 c -0.10746,-0.48545 -0.58277,-0.79655 -1.07498,-0.68646 -0.4862,0.10746 -0.79355,0.5884 -0.68609,1.07497 0.17697,0.80445 0.18449,1.40562 0.1766,2.31453 -0.004,0.49859 0.3964,0.90514 0.89424,0.90927 h 0.007 c 0.49485,0 0.89763,-0.39865 0.90177,-0.89424 0.007,-0.83338 0.015,-1.65737 -0.21906,-2.71807 z m -1.50745,-3.40866 c -1.82982,-2.60722 -4.82405,-4.19169 -8.0099,-4.23941 -2.62225,-0.0315 -5.04762,0.9352 -6.85152,2.73986 -1.74228,1.74453 -2.68124,4.06169 -2.64216,6.52688 l -0.005,0.8067 c -0.0147,0.49785 0.37686,0.91341 0.87471,0.92769 0.009,8.5e-4 0.018,8.5e-4 0.0271,8.5e-4 0.48545,0 0.88635,-0.38701 0.90063,-0.87547 l 0.006,-0.88823 c -0.0312,-1.9726 0.71991,-3.82722 2.11464,-5.2227 1.45634,-1.45785 3.43195,-2.24201 5.54884,-2.21157 2.60948,0.0387 5.06227,1.33611 6.56108,3.47141 0.28593,0.40805 0.84765,0.50536 1.2557,0.22018 0.4073,-0.28631 0.50574,-0.84879 0.21943,-1.25608 z"
         id="path841-5-3" />
    </g>
    <g
       id="g1194"
       transform="translate(-68.102246,0.75595238)">
      <path
         style="fill:currentColor;stroke-width:0.03382726"
         inkscape:connector-curvature="0"
         d="m 177.19089,256.05334 v 1.57312 c 0,1.38634 -3.33629,2.51702 -7.44848,2.51702 -4.1122,0 -7.44849,-1.13068 -7.44849,-2.51702 v -1.57312 c 0,-1.38633 3.33629,-2.51702 7.44849,-2.51702 4.11219,0 7.44848,1.13069 7.44848,2.51702 z m 0,3.53955 v 3.53954 c 0,1.38634 -3.33629,2.51702 -7.44848,2.51702 -4.1122,0 -7.44849,-1.13068 -7.44849,-2.51702 v -3.53954 c 1.60025,1.14052 4.52921,1.67147 7.44849,1.67147 2.91927,0 5.8482,-0.53095 7.44848,-1.67147 z m 0,5.50596 v 3.53954 c 0,1.38634 -3.33629,2.51703 -7.44848,2.51703 -4.1122,0 -7.44849,-1.13069 -7.44849,-2.51703 v -3.53954 c 1.60025,1.14053 4.52921,1.67147 7.44849,1.67147 2.91927,0 5.8482,-0.53094 7.44848,-1.67147 z"
         id="path851-9" />
      <path
         style="fill:currentColor;stroke-width:0.03757344"
         inkscape:connector-curvature="0"
         d="m 193.59505,261.96862 c -0.49785,0 -0.90176,0.40354 -0.90176,0.90176 0.0428,2.71469 -0.30585,5.33169 -1.04079,7.94868 -0.10257,0.36521 0.0808,1.14561 0.8687,1.14561 0.39377,0 0.7556,-0.26001 0.86757,-0.65829 0.50837,-1.80014 1.16628,-4.71208 1.10767,-8.436 2.6e-4,-0.49784 -0.40317,-0.90176 -0.90139,-0.90176 z m -0.0323,-3.07088 c -2.30175,-0.003 -3.90801,1.76859 -3.87608,3.7983 0.0282,1.80127 -0.1409,3.60368 -0.50235,5.35611 -0.10107,0.4877 0.21304,0.96526 0.70037,1.06558 0.49033,0.10032 0.96451,-0.21267 1.06558,-0.70037 0.38851,-1.88205 0.56999,-3.81672 0.53993,-5.7495 -0.0154,-0.97503 0.74846,-1.97223 2.04587,-1.96659 1.17643,0.0177 2.14733,0.95211 2.16498,2.0842 0.0289,1.8054 -0.10558,3.61946 -0.39865,5.39368 -0.0815,0.4907 0.25137,0.95511 0.74245,1.03627 0.75034,0.12512 1.00735,-0.56736 1.03628,-0.74283 0.31111,-1.87979 0.45313,-3.80282 0.42345,-5.7153 -0.0331,-2.0966 -1.80127,-3.82799 -3.94183,-3.85955 z m -4.159,-0.7432 c -0.38701,-0.31336 -0.95324,-0.2555 -1.26848,0.13076 -0.96263,1.18356 -1.48002,2.67823 -1.45597,4.20822 0.0222,1.41201 -0.0928,2.82815 -0.3423,4.21012 -0.0879,0.49033 0.23709,0.95925 0.72742,1.04792 0.75561,0.13151 1.01712,-0.55647 1.04793,-0.72742 0.27015,-1.49694 0.39452,-3.03069 0.37047,-4.5588 -0.0177,-1.12269 0.34568,-2.17475 1.05206,-3.04232 0.31374,-0.38625 0.25512,-0.95399 -0.13113,-1.26848 z m 4.11316,-2.34195 c -0.57901,-0.0154 -1.15989,0.0541 -1.72011,0.18674 -0.48432,0.11498 -0.78416,0.60043 -0.66994,1.0855 0.11498,0.48432 0.60118,0.78265 1.0855,0.66993 0.41519,-0.0981 0.84428,-0.14165 1.2775,-0.13865 2.83416,0.0425 5.17499,2.31077 5.2182,5.05664 0.0222,1.42328 -0.0481,2.85971 -0.20966,4.26947 -0.0564,0.49485 0.29871,0.94235 0.79317,0.99871 0.62823,0.0733 0.9585,-0.44637 0.9987,-0.79318 a 34.907979,34.907979 0 0 0 0.22131,-4.50318 c -0.0586,-3.71038 -3.19637,-6.77562 -6.99467,-6.83198 z m 9.47114,4.56329 c -0.10746,-0.48545 -0.58277,-0.79655 -1.07498,-0.68646 -0.4862,0.10746 -0.79355,0.5884 -0.68609,1.07497 0.17697,0.80445 0.18449,1.40562 0.1766,2.31453 -0.004,0.49859 0.3964,0.90514 0.89424,0.90927 h 0.007 c 0.49485,0 0.89763,-0.39865 0.90177,-0.89424 0.007,-0.83338 0.015,-1.65737 -0.21906,-2.71807 z m -1.50745,-3.40866 c -1.82982,-2.60722 -4.82405,-4.19169 -8.0099,-4.23941 -2.62225,-0.0315 -5.04762,0.9352 -6.85152,2.73986 -1.74228,1.74453 -2.68124,4.06169 -2.64216,6.52688 l -0.005,0.8067 c -0.0147,0.49785 0.37686,0.91341 0.87471,0.92769 0.009,8.5e-4 0.018,8.5e-4 0.0271,8.5e-4 0.48545,0 0.88635,-0.38701 0.90063,-0.87547 l 0.006,-0.88823 c -0.0312,-1.9726 0.71991,-3.82722 2.11464,-5.2227 1.45634,-1.45785 3.43195,-2.24201 5.54884,-2.21157 2.60948,0.0387 5.06227,1.33611 6.56108,3.47141 0.28593,0.40805 0.84765,0.50536 1.2557,0.22018 0.4073,-0.28631 0.50574,-0.84879 0.21943,-1.25608 z"
         id="path841-5-4" />
    </g>
    <path
       id="path1196"
       d="m 259.20035,232.10658 c -7.49985,-12.72703 -21.48625,-21.23313 -37.42263,-21.23313 -3.78664,0 -7.46234,0.48138 -10.96712,1.38454 l -7.01928,-9.59947 c -1.01104,-1.44426 -3.00132,-1.79569 -4.44572,-0.78478 l -1.74434,1.2208 c -1.44453,1.01104 -1.79595,3.00159 -0.78478,4.44612 l 5.73702,7.76734 c -7.18581,3.51036 -13.73288,9.22371 -18.19496,16.79192 -0.002,0.003 -0.003,0.005 -0.005,0.007 -1.16587,1.97858 -1.19234,4.45969 0,6.48296 5.12102,8.69006 13.26706,15.41124 22.99263,18.80137 l -16.51912,-23.59889 a 36.205559,36.205559 0 0 1 3.76349,-4.7768 l 15.88185,22.6895 h 0.002 l 5.40435,7.72012 a 43.90187,43.90187 0 0 0 10.50011,0.15563 L 201.1089,223.4805 a 36.928356,36.928356 0 0 1 5.15788,-2.86818 l 33.49766,47.42528 c 1.01104,1.44426 3.00133,1.79555 4.44572,0.78478 l 1.74435,-1.22081 c 1.44452,-1.01103 1.79595,-3.00172 0.78478,-4.44611 l -5.73556,-7.76495 -10e-4,-0.001 c 7.60321,-3.72146 13.94451,-9.58231 18.19762,-16.79977 a 6.3764157,6.3764157 0 0 0 1.3e-4,-6.48296 z m -23.85177,15.20467 -2.53604,-3.62197 c 3.28305,-4.33185 3.68595,-10.156 1.17052,-14.85497 v 0.004 c 0,3.14578 -2.54987,5.69565 -5.69565,5.69565 -3.16945,0 -5.69565,-2.57368 -5.69565,-5.69565 0,-3.14578 2.54987,-5.69565 5.69565,-5.69565 h 0.004 c -3.29209,-1.7623 -7.11916,-2.08074 -10.57592,-1.02155 l -2.53629,-3.62293 c 2.04389,-0.80035 4.26921,-1.24009 6.59855,-1.24009 9.99758,0 18.08987,8.0907 18.08987,18.08988 0,4.58951 -1.70696,8.77559 -4.51901,11.96326 z"
       inkscape:connector-curvature="0"
       style="fill:currentColor;stroke-width:0.1330138" />
    <text
       xml:space="preserve"
       style="font-style:normal;font-weight:normal;font-size:51.00708008px;line-height:1.25;font-family:sans-serif;letter-spacing:0px;word-spacing:0px;fill:#000000;fill-opacity:1;stroke:none;stroke-width:1.275177"
       x="-243.83653"
       y="-135.72118"
       id="text1141-8"
       transform="scale(-0.63917551,-1.5645155)"><tspan
         sodipodi:role="line"
         id="tspan1139-1"
         x="-243.83653"
         y="-135.72118"
         style="stroke-width:1.275177">{</tspan></text>
    <rect
       style="fill:none;stroke:none;stroke-width:1.46499991;stroke-miterlimit:4;stroke-dasharray:none"
       id="rect1229"
       width="206.186"
       height="36.85268"
       x="-3.96875"
       y="81.175598" />
    <rect
       style="fill:#000000;fill-opacity:1;stroke:none;stroke-width:1.00319541;stroke-miterlimit:4;stroke-dasharray:none"
       id="rect1231"
       width="297.46729"
       height="3.4017782"
       x="0"
       y="112.35863" />
  </g>
</svg>
