<?xml version="1.0" encoding="UTF-8" standalone="no"?>
<!-- Created with Inkscape (http://www.inkscape.org/) -->

<svg
   xmlns:dc="http://purl.org/dc/elements/1.1/"
   xmlns:cc="http://creativecommons.org/ns#"
   xmlns:rdf="http://www.w3.org/1999/02/22-rdf-syntax-ns#"
   xmlns:svg="http://www.w3.org/2000/svg"
   xmlns="http://www.w3.org/2000/svg"
   xmlns:sodipodi="http://sodipodi.sourceforge.net/DTD/sodipodi-0.dtd"
   xmlns:inkscape="http://www.inkscape.org/namespaces/inkscape"
   width="297mm"
   height="210mm"
   viewBox="0 0 297 210"
   version="1.1"
   id="svg8"
   inkscape:version="0.92.5 (2060ec1f9f, 2020-04-08)"
   sodipodi:docname="slide-1.svg">
  <defs
     id="defs2">
    <marker
       inkscape:stockid="Arrow2Lend"
       orient="auto"
       refY="0.0"
       refX="0.0"
       id="Arrow2Lend"
       style="overflow:visible;"
       inkscape:isstock="true">
      <path
         id="path896"
         style="fill-rule:evenodd;stroke-width:0.625;stroke-linejoin:round;stroke:#000000;stroke-opacity:1;fill:#000000;fill-opacity:1"
         d="M 8.7185878,4.0337352 L -2.2072895,0.016013256 L 8.7185884,-4.0017078 C 6.9730900,-1.6296469 6.9831476,1.6157441 8.7185878,4.0337352 z "
         transform="scale(1.1) rotate(180) translate(1,0)" />
    </marker>
    <marker
       inkscape:stockid="Arrow2Lend"
       orient="auto"
       refY="0"
       refX="0"
       id="Arrow2Lend-0"
       style="overflow:visible"
       inkscape:isstock="true">
      <path
         inkscape:connector-curvature="0"
         id="path896-8"
         style="fill:#000000;fill-opacity:1;fill-rule:evenodd;stroke:#000000;stroke-width:0.625;stroke-linejoin:round;stroke-opacity:1"
         d="M 8.7185878,4.0337352 -2.2072895,0.01601326 8.7185884,-4.0017078 c -1.7454984,2.3720609 -1.7354408,5.6174519 -6e-7,8.035443 z"
         transform="matrix(-1.1,0,0,-1.1,-1.1,0)" />
    </marker>
    <marker
       inkscape:stockid="Arrow2Lend"
       orient="auto"
       refY="0"
       refX="0"
       id="Arrow2Lend-5"
       style="overflow:visible"
       inkscape:isstock="true">
      <path
         inkscape:connector-curvature="0"
         id="path896-0"
         style="fill:#000000;fill-opacity:1;fill-rule:evenodd;stroke:#000000;stroke-width:0.625;stroke-linejoin:round;stroke-opacity:1"
         d="M 8.7185878,4.0337352 -2.2072895,0.01601326 8.7185884,-4.0017078 c -1.7454984,2.3720609 -1.7354408,5.6174519 -6e-7,8.035443 z"
         transform="matrix(-1.1,0,0,-1.1,-1.1,0)" />
    </marker>
  </defs>
  <sodipodi:namedview
     id="base"
     pagecolor="#ffffff"
     bordercolor="#666666"
     borderopacity="1.0"
     inkscape:pageopacity="0.0"
     inkscape:pageshadow="2"
     inkscape:zoom="1.4"
     inkscape:cx="191.65642"
     inkscape:cy="350.55454"
     inkscape:document-units="mm"
     inkscape:current-layer="layer1"
     showgrid="false"
     inkscape:window-width="3840"
     inkscape:window-height="2272"
     inkscape:window-x="0"
     inkscape:window-y="54"
     inkscape:window-maximized="1" />
  <metadata
     id="metadata5">
    <rdf:RDF>
      <cc:Work
         rdf:about="">
        <dc:format>image/svg+xml</dc:format>
        <dc:type
           rdf:resource="http://purl.org/dc/dcmitype/StillImage" />
        <dc:title></dc:title>
      </cc:Work>
    </rdf:RDF>
  </metadata>
  <g
     inkscape:label="Layer 1"
     inkscape:groupmode="layer"
     id="layer1"
     transform="translate(0,-87)">
    <text
       xml:space="preserve"
       style="font-style:normal;font-variant:normal;font-weight:normal;font-stretch:normal;font-size:10.58333302px;line-height:1.25;font-family:Manjari;-inkscape-font-specification:'Manjari, Normal';font-variant-ligatures:normal;font-variant-caps:normal;font-variant-numeric:normal;font-feature-settings:normal;text-align:start;letter-spacing:0px;word-spacing:0px;writing-mode:lr-tb;text-anchor:start;fill:#000000;fill-opacity:1;stroke:none;stroke-width:0.26458332"
       x="5.8586292"
       y="107.82292"
       id="text817"><tspan
         sodipodi:role="line"
         id="tspan815"
         x="5.8586292"
         y="107.82292"
         style="font-style:normal;font-variant:normal;font-weight:normal;font-stretch:normal;font-size:22.57777786px;font-family:Manjari;-inkscape-font-specification:'Manjari, Normal';font-variant-ligatures:normal;font-variant-caps:normal;font-variant-numeric:normal;font-feature-settings:normal;text-align:start;writing-mode:lr-tb;text-anchor:start;stroke-width:0.26458332">FairSafe</tspan></text>
    <text
       xml:space="preserve"
       style="font-style:normal;font-weight:normal;font-size:10.58333302px;line-height:1.25;font-family:sans-serif;letter-spacing:0px;word-spacing:0px;fill:#000000;fill-opacity:1;stroke:none;stroke-width:0.26458332"
       x="208.64285"
       y="105.88609"
       id="text821"><tspan
         sodipodi:role="line"
         id="tspan819"
         x="208.64285"
         y="105.88609"
         style="stroke-width:0.26458332">a user story</tspan></text>
    <text
       xml:space="preserve"
       style="font-style:normal;font-weight:normal;font-size:10.58333302px;line-height:1.25;font-family:sans-serif;letter-spacing:0px;word-spacing:0px;fill:#000000;fill-opacity:1;stroke:none;stroke-width:0.26458332"
       x="44.187046"
       y="129.66765"
       id="text821-5"><tspan
         sodipodi:role="line"
         x="44.187046"
         y="129.66765"
         style="stroke-width:0.26458332"
         id="tspan1209">but i should keep my personal data, store it</tspan><tspan
         sodipodi:role="line"
         x="44.187046"
         y="142.89682"
         style="stroke-width:0.26458332"
         id="tspan1371">myself and where i can see it an grant access</tspan><tspan
         sodipodi:role="line"
         x="44.187046"
         y="156.12598"
         style="stroke-width:0.26458332"
         id="tspan1373">to third parties</tspan></text>
    <path
       id="path829"
       d="m 160.75013,163.87678 h -20.06424 c -1.10771,0 -2.00642,0.89871 -2.00642,2.00642 v 13.37616 c 0,1.10771 0.89871,2.00643 2.00642,2.00643 h 8.0257 l -0.66881,2.00642 h -3.00964 c -0.55594,0 -1.00321,0.44727 -1.00321,1.00321 0,0.55594 0.44727,1.00321 1.00321,1.00321 h 11.36973 c 0.55596,0 1.00322,-0.44727 1.00322,-1.00321 0,-0.55594 -0.44726,-1.00321 -1.00322,-1.00321 h -3.00963 l -0.66881,-2.00642 h 8.0257 c 1.10771,0 2.00642,-0.89872 2.00642,-2.00643 V 165.8832 c 0,-1.10771 -0.89871,-2.00642 -2.00642,-2.00642 z m -0.66881,14.71377 H 141.3547 v -12.03854 h 18.72662 z"
       inkscape:connector-curvature="0"
       style="fill:currentColor;stroke-width:0.04180049" />
    <path
       id="path840"
       d="m 47.742073,265.75597 2.10593,-9.26605 c 0.15205,-0.66903 -0.35648,-1.30612 -1.04256,-1.30612 h -17.49778 l -0.40833,-1.9962 c -0.10175,-0.49757 -0.53957,-0.85489 -1.04747,-0.85489 h -4.567494 c -0.590488,0 -1.06916,0.47867 -1.06916,1.06916 v 0.71277 c 0,0.5905 0.478672,1.06916 1.06916,1.06916 h 3.113174 l 3.12943,15.29946 c -0.74868,0.43056 -1.25319,1.23786 -1.25319,2.16349 0,1.37778 1.11692,2.49471 2.49471,2.49471 1.37779,0 2.4947,-1.11693 2.4947,-2.49471 0,-0.69825 -0.2872,-1.3291 -0.74949,-1.78194 h 9.33943 c -0.46223,0.45284 -0.74943,1.08369 -0.74943,1.78194 0,1.37778 1.11691,2.49471 2.4947,2.49471 1.37779,0 2.49471,-1.11693 2.49471,-2.49471 0,-0.98773 -0.57413,-1.84128 -1.40679,-2.24546 l 0.24578,-1.08146 c 0.15204,-0.66902 -0.35648,-1.30611 -1.04257,-1.30611 h -11.95758 l -0.29156,-1.42555 h 13.05912 c 0.49921,0 0.93195,-0.34542 1.04256,-0.8322 z"
       inkscape:connector-curvature="0"
       style="fill:currentColor;stroke-width:0.04454833" />
    <path
       id="path862"
       d="M 148.72894,209.74941 V 210.63 a 0.44029826,0.44029826 0 0 1 -0.4403,0.4403 h -1.32089 v 0.66045 c 0,0.36473 -0.29572,0.66045 -0.66045,0.66045 h -21.57462 c -0.36473,0 -0.66044,-0.29572 -0.66044,-0.66045 v -0.66045 h -1.3209 a 0.44029826,0.44029826 0 0 1 -0.4403,-0.4403 v -0.88059 a 0.44029826,0.44029826 0 0 1 0.27194,-0.40684 l 12.76865,-4.84328 a 0.4400781,0.4400781 0 0 1 0.33672,0 l 12.76865,4.84328 a 0.44029826,0.44029826 0 0 1 0.27194,0.40684 z m -1.3209,16.73133 h -23.7761 c -0.72952,0 -1.32089,0.59137 -1.32089,1.32089 v 0.8806 a 0.44029826,0.44029826 0 0 0 0.44029,0.4403 h 25.5373 a 0.44029826,0.44029826 0 0 0 0.4403,-0.4403 v -0.8806 c 0,-0.72952 -0.59137,-1.32089 -1.3209,-1.32089 z m -20.69401,-13.20895 v 10.56716 h -1.98135 c -0.36473,0 -0.66044,0.29572 -0.66044,0.66044 v 1.10075 h 22.89551 v -1.10075 c 0,-0.36472 -0.29572,-0.66044 -0.66045,-0.66044 h -1.98134 v -10.56716 h -3.52239 v 10.56716 h -3.52238 v -10.56716 h -3.52239 v 10.56716 h -3.52239 v -10.56716 z"
       inkscape:connector-curvature="0"
       style="fill:currentColor;stroke-width:0.05503727" />
    <path
       style="fill:none;stroke:#000000;stroke-width:1.46500003;stroke-linecap:butt;stroke-linejoin:miter;stroke-miterlimit:4;stroke-dasharray:none;stroke-opacity:1;marker-end:url(#Arrow2Lend)"
       d="M 26.269347,265.60435 C -4.3692646,272.70696 16.63706,241.09584 22.470695,233.01129"
       id="path873"
       inkscape:connector-curvature="0"
       sodipodi:nodetypes="cc" />
    <rect
       style="fill:none;stroke:none;stroke-width:1.46499991;stroke-miterlimit:4;stroke-dasharray:none"
       id="rect1229"
       width="206.186"
       height="36.85268"
       x="-3.96875"
       y="81.175598" />
    <rect
       style="fill:#000000;fill-opacity:1;stroke:none;stroke-width:1.00319541;stroke-miterlimit:4;stroke-dasharray:none"
       id="rect1231"
       width="297.46729"
       height="3.4017782"
       x="0"
       y="112.35863" />
    <path
       id="path1254"
       d="m 22.300593,140.57186 c 3.7937,0 6.86837,-3.07466 6.86837,-6.86836 0,-3.7937 -3.07467,-6.86837 -6.86837,-6.86837 -3.7937,0 -6.86837,3.07467 -6.86837,6.86837 0,3.7937 3.07467,6.86836 6.86837,6.86836 z m 4.80786,1.71709 h -0.89611 c -1.19123,0.54733 -2.51661,0.85855 -3.91175,0.85855 -1.39514,0 -2.71515,-0.31122 -3.91175,-0.85855 h -0.89611 c -3.9815,0 -7.21178,3.23028 -7.21178,7.21179 v 2.23222 c 0,1.42197 1.15367,2.57564 2.57564,2.57564 h 18.888 c 1.42197,0 2.57564,-1.15367 2.57564,-2.57564 v -2.23222 c 0,-3.98151 -3.23028,-7.21179 -7.21178,-7.21179 z"
       inkscape:connector-curvature="0"
       style="fill:currentColor;stroke-width:0.05365911" />
    <g
       id="g1380"
       transform="translate(-153.83631,-48.380952)">
      <path
         style="fill:currentColor;stroke-width:0.03382726"
         inkscape:connector-curvature="0"
         d="m 193.18834,237.26582 v 1.57312 c 0,1.38634 -3.33629,2.51702 -7.44848,2.51702 -4.11219,0 -7.44848,-1.13068 -7.44848,-2.51702 v -1.57312 c 0,-1.38632 3.33629,-2.51702 7.44848,-2.51702 4.11219,0 7.44848,1.13069 7.44848,2.51702 z m 0,3.53955 v 3.53954 c 0,1.38634 -3.33629,2.51702 -7.44848,2.51702 -4.11219,0 -7.44848,-1.13068 -7.44848,-2.51702 v -3.53954 c 1.60025,1.14052 4.52921,1.67147 7.44848,1.67147 2.91927,0 5.8482,-0.53095 7.44848,-1.67147 z m 0,5.50596 v 3.53954 c 0,1.38634 -3.33629,2.51703 -7.44848,2.51703 -4.11219,0 -7.44848,-1.13069 -7.44848,-2.51703 v -3.53954 c 1.60025,1.14053 4.52921,1.67147 7.44848,1.67147 2.91927,0 5.8482,-0.53094 7.44848,-1.67147 z"
         id="path851" />
      <path
         style="fill:currentColor;stroke-width:0.03757344"
         inkscape:connector-curvature="0"
         d="m 209.5925,243.18111 c -0.49785,0 -0.90176,0.40354 -0.90176,0.90176 0.0428,2.71469 -0.30585,5.33169 -1.04079,7.94868 -0.10257,0.36521 0.0808,1.14561 0.8687,1.14561 0.39377,0 0.7556,-0.26001 0.86757,-0.65829 0.50837,-1.80014 1.16628,-4.71208 1.10767,-8.436 3.7e-4,-0.49784 -0.40317,-0.90176 -0.90139,-0.90176 z m -0.0323,-3.07088 c -2.30175,-0.003 -3.90801,1.76859 -3.87608,3.7983 0.0282,1.80127 -0.1409,3.60368 -0.50235,5.35611 -0.10107,0.4877 0.21304,0.96526 0.70037,1.06558 0.49033,0.10032 0.96451,-0.21267 1.06558,-0.70037 0.38851,-1.88205 0.56999,-3.81672 0.53993,-5.7495 -0.0154,-0.97503 0.74846,-1.97223 2.04587,-1.96659 1.17643,0.0177 2.14733,0.95211 2.16498,2.0842 0.0289,1.8054 -0.10558,3.61946 -0.39865,5.39368 -0.0815,0.4907 0.25137,0.95511 0.74245,1.03627 0.75034,0.12512 1.00735,-0.56736 1.03628,-0.74283 0.31111,-1.87979 0.45313,-3.80282 0.42345,-5.7153 -0.0331,-2.0966 -1.80127,-3.82799 -3.94183,-3.85955 z m -4.159,-0.7432 c -0.38701,-0.31336 -0.95324,-0.2555 -1.26848,0.13076 -0.96263,1.18356 -1.48002,2.67823 -1.45597,4.20822 0.0222,1.41201 -0.0928,2.82815 -0.3423,4.21012 -0.0879,0.49033 0.23709,0.95925 0.72742,1.04792 0.75561,0.13151 1.01712,-0.55647 1.04793,-0.72742 0.27015,-1.49694 0.39452,-3.03069 0.37047,-4.5588 -0.0177,-1.12269 0.34568,-2.17475 1.05206,-3.04232 0.31374,-0.38625 0.25512,-0.95399 -0.13113,-1.26848 z m 4.11316,-2.34195 c -0.57901,-0.0154 -1.15989,0.0541 -1.72011,0.18674 -0.48432,0.11498 -0.78416,0.60043 -0.66994,1.0855 0.11498,0.48432 0.60118,0.78265 1.0855,0.66993 0.41519,-0.0981 0.84428,-0.14165 1.2775,-0.13865 2.83416,0.0425 5.17499,2.31077 5.2182,5.05664 0.0222,1.42328 -0.0481,2.85971 -0.20966,4.26947 -0.0564,0.49485 0.29871,0.94235 0.79317,0.99871 0.62823,0.0733 0.9585,-0.44637 0.9987,-0.79318 a 34.907979,34.907979 0 0 0 0.22131,-4.50318 c -0.0586,-3.71038 -3.19637,-6.77562 -6.99467,-6.83198 z m 9.47114,4.56329 c -0.10746,-0.48545 -0.58277,-0.79655 -1.07498,-0.68646 -0.4862,0.10746 -0.79355,0.5884 -0.68609,1.07497 0.17697,0.80445 0.18449,1.40562 0.1766,2.31453 -0.004,0.49859 0.3964,0.90514 0.89424,0.90927 h 0.007 c 0.49485,0 0.89763,-0.39865 0.90177,-0.89424 0.007,-0.83338 0.015,-1.65737 -0.21906,-2.71807 z m -1.50745,-3.40866 c -1.82982,-2.60722 -4.82405,-4.19169 -8.0099,-4.23941 -2.62225,-0.0315 -5.04762,0.9352 -6.85152,2.73986 -1.74228,1.74453 -2.68124,4.06169 -2.64216,6.52688 l -0.005,0.8067 c -0.0147,0.49785 0.37686,0.91341 0.87471,0.92769 0.009,8.5e-4 0.018,8.5e-4 0.0271,8.5e-4 0.48545,0 0.88635,-0.38701 0.90063,-0.87547 l 0.006,-0.88823 c -0.0312,-1.9726 0.71991,-3.82722 2.11464,-5.2227 1.45634,-1.45785 3.43195,-2.24201 5.54884,-2.21157 2.60948,0.0387 5.06227,1.33611 6.56108,3.47141 0.28593,0.40805 0.84765,0.50536 1.2557,0.22018 0.4073,-0.28631 0.50574,-0.84879 0.21943,-1.25608 z"
         id="path841-5" />
      <path
         style="fill:none;fill-opacity:0.23123121;stroke:#000000;stroke-width:3.32156992;stroke-miterlimit:4;stroke-dasharray:none;stroke-opacity:1"
         inkscape:connector-curvature="0"
         d="m 236.28331,241.22161 c 0.58445,-1.5253 0.91231,-3.19316 0.91231,-4.93229 0,-7.55525 -6.12972,-13.68498 -13.68497,-13.68498 -2.80828,0 -5.43122,0.85532 -7.59802,2.30935 -3.94868,-6.84248 -11.31861,-11.43266 -19.77192,-11.43266 -12.60158,0 -22.8083,10.2067 -22.8083,22.80829 0,0.38489 0.0143,0.76977 0.0285,1.15467 -7.9829,2.80827 -13.71349,10.42054 -13.71349,19.37279 0,11.33287 9.1946,20.52747 20.52747,20.52747 h 52.45906 c 10.07841,0 18.24665,-8.16823 18.24665,-18.24664 0,-8.82396 -6.2723,-16.19388 -14.59733,-17.876 z"
         id="path1265" />
      <path
         style="fill:currentColor;stroke-width:0.03382726"
         inkscape:connector-curvature="0"
         d="m 208.53182,257.63456 v 1.57312 c 0,1.38634 -3.33629,2.51702 -7.44849,2.51702 -4.11219,0 -7.44848,-1.13068 -7.44848,-2.51702 v -1.57312 c 0,-1.38632 3.33629,-2.51702 7.44848,-2.51702 4.1122,0 7.44849,1.13069 7.44849,2.51702 z m 0,3.53955 v 3.53954 c 0,1.38634 -3.33629,2.51702 -7.44849,2.51702 -4.11219,0 -7.44848,-1.13068 -7.44848,-2.51702 v -3.53954 c 1.60025,1.14052 4.52921,1.67147 7.44848,1.67147 2.91928,0 5.84821,-0.53095 7.44849,-1.67147 z m 0,5.50596 v 3.53954 c 0,1.38634 -3.33629,2.51703 -7.44849,2.51703 -4.11219,0 -7.44848,-1.13069 -7.44848,-2.51703 v -3.53954 c 1.60025,1.14053 4.52921,1.67147 7.44848,1.67147 2.91928,0 5.84821,-0.53094 7.44849,-1.67147 z"
         id="path851-2" />
      <path
         style="fill:currentColor;stroke-width:0.03382726"
         inkscape:connector-curvature="0"
         d="m 239.90384,252.72087 v 1.57312 c 0,1.38634 -3.33629,2.51702 -7.44848,2.51702 -4.1122,0 -7.44849,-1.13068 -7.44849,-2.51702 v -1.57312 c 0,-1.38632 3.33629,-2.51702 7.44849,-2.51702 4.11219,0 7.44848,1.13069 7.44848,2.51702 z m 0,3.53955 v 3.53954 c 0,1.38634 -3.33629,2.51702 -7.44848,2.51702 -4.1122,0 -7.44849,-1.13068 -7.44849,-2.51702 v -3.53954 c 1.60025,1.14052 4.52921,1.67147 7.44849,1.67147 2.91927,0 5.8482,-0.53095 7.44848,-1.67147 z m 0,5.50596 v 3.53954 c 0,1.38634 -3.33629,2.51703 -7.44848,2.51703 -4.1122,0 -7.44849,-1.13069 -7.44849,-2.51703 v -3.53954 c 1.60025,1.14053 4.52921,1.67147 7.44849,1.67147 2.91927,0 5.8482,-0.53094 7.44848,-1.67147 z"
         id="path851-9" />
    </g>
    <path
       id="path1299"
       d="m 128.11225,167.29875 c 0,3.15017 -2.55373,5.70387 -5.7039,5.70387 -0.36362,0 -0.71914,-0.0344 -1.06387,-0.0995 l -0.7782,0.87549 a 0.77777186,0.77777186 0 0 1 -0.58134,0.26105 h -1.20634 v 1.29634 c 0,0.42957 -0.34823,0.7778 -0.77781,0.7778 h -1.29634 v 1.29634 c 0,0.42958 -0.34823,0.77781 -0.7778,0.77781 h -3.62976 c -0.42957,0 -0.7778,-0.34823 -0.7778,-0.77781 v -2.52977 c 0,-0.20628 0.082,-0.40414 0.2278,-0.55001 l 5.24376,-5.24376 c -0.18547,-0.56242 -0.2862,-1.16337 -0.2862,-1.78791 0,-3.15017 2.5537,-5.70387 5.70387,-5.7039 3.15947,-3e-5 5.70393,2.54442 5.70393,5.70393 z m -5.7039,-1.55564 c 0,0.85915 0.69646,1.55561 1.55561,1.55561 0.85915,0 1.55561,-0.69646 1.55561,-1.55561 0,-0.85915 -0.69646,-1.55561 -1.55561,-1.55561 -0.85915,0 -1.55561,0.69646 -1.55561,1.55561 z"
       inkscape:connector-curvature="0"
       style="fill:currentColor;stroke-width:0.03240851" />
    <path
       id="path1299-3"
       d="m 130.19743,236.61672 c 0,3.15017 -2.55373,5.70387 -5.70391,5.70387 -0.36362,0 -0.71914,-0.0344 -1.06387,-0.0995 l -0.7782,0.87549 a 0.77777187,0.77777187 0 0 1 -0.58134,0.26105 h -1.20634 v 1.29634 c 0,0.42957 -0.34823,0.7778 -0.77781,0.7778 h -1.29634 v 1.29634 c 0,0.42958 -0.34823,0.77781 -0.7778,0.77781 h -3.62976 c -0.42957,0 -0.7778,-0.34823 -0.7778,-0.77781 v -2.52977 c 0,-0.20628 0.082,-0.40414 0.2278,-0.55001 l 5.24376,-5.24376 c -0.18547,-0.56242 -0.2862,-1.16337 -0.2862,-1.78791 0,-3.15017 2.5537,-5.70387 5.70387,-5.7039 3.15948,-3e-5 5.70394,2.54442 5.70394,5.70393 z m -5.70391,-1.55564 c 0,0.85915 0.69646,1.55561 1.55561,1.55561 0.85915,0 1.55562,-0.69646 1.55562,-1.55561 0,-0.85915 -0.69647,-1.55561 -1.55562,-1.55561 -0.85915,0 -1.55561,0.69646 -1.55561,1.55561 z"
       inkscape:connector-curvature="0"
       style="fill:currentColor;stroke-width:0.03240851" />
    <path
       id="path1299-9"
       d="m 18.69222,261.62565 c 0,3.15017 -2.55373,5.70387 -5.7039,5.70387 -0.36362,0 -0.71914,-0.0344 -1.06387,-0.0995 l -0.7782,0.87549 a 0.77777187,0.77777187 0 0 1 -0.58134,0.26105 H 9.3585701 v 1.29634 c 0,0.42957 -0.34823,0.7778 -0.77781,0.7778 h -1.29634 v 1.29634 c 0,0.42958 -0.34823,0.77781 -0.7778,0.77781 h -3.62976 c -0.42957,0 -0.7778,-0.34823 -0.7778,-0.77781 v -2.52977 c 0,-0.20628 0.082,-0.40414 0.2278,-0.55001 l 5.24376,-5.24376 c -0.18547,-0.56242 -0.2862,-1.16337 -0.2862,-1.78791 0,-3.15017 2.5537,-5.70387 5.7038699,-5.7039 3.15947,-3e-5 5.70393,2.54442 5.70393,5.70393 z m -5.7039,-1.55564 c 0,0.85915 0.69646,1.55561 1.55561,1.55561 0.85915,0 1.55561,-0.69646 1.55561,-1.55561 0,-0.85915 -0.69646,-1.55561 -1.55561,-1.55561 -0.85915,0 -1.55561,0.69646 -1.55561,1.55561 z"
       inkscape:connector-curvature="0"
       style="fill:currentColor;stroke-width:0.03240851" />
    <path
       style="fill:none;stroke:#000000;stroke-width:1.46500015;stroke-linecap:butt;stroke-linejoin:miter;stroke-miterlimit:4;stroke-dasharray:none;stroke-opacity:1;marker-end:url(#Arrow2Lend-0)"
       d="m 129.23865,229.97501 c -14.34096,8.78077 -24.84582,0.1072 -34.083994,-3.9141"
       id="path873-8"
       inkscape:connector-curvature="0"
       sodipodi:nodetypes="cc" />
    <path
       style="fill:none;stroke:#000000;stroke-width:1.46500015;stroke-linecap:butt;stroke-linejoin:miter;stroke-miterlimit:4;stroke-dasharray:none;stroke-opacity:1;marker-end:url(#Arrow2Lend-5)"
       d="m 135.22276,171.25904 c -21.82032,-5.12094 -33.45007,4.74714 -44.605226,16.33333"
       id="path873-9"
       inkscape:connector-curvature="0"
       sodipodi:nodetypes="cc" />
    <path
       id="path1382"
       d="m 274.88725,245.17211 c -7.88946,-15.39339 -23.50835,-25.80841 -41.39238,-25.80841 -17.88404,0 -33.50729,10.42229 -41.39239,25.80987 a 4.7063252,4.7063252 0 0 0 0,4.2466 c 7.88946,15.39339 23.50835,25.80841 41.39239,25.80841 17.88403,0 33.50728,-10.42229 41.39238,-25.80987 a 4.7063252,4.7063252 0 0 0 0,-4.2466 z m -41.39238,23.07336 a 20.94933,20.94933 0 1 1 20.94933,-20.94933 20.939147,20.939147 0 0 1 -20.94933,20.94933 z m 0,-34.91555 a 13.865838,13.865838 0 0 0 -3.68214,0.55137 6.9612876,6.9612876 0 0 1 -9.73271,9.73272 13.934214,13.934214 0 1 0 13.41485,-10.28409 z"
       inkscape:connector-curvature="0"
       style="fill:currentColor;stroke-width:0.14548145" />
  </g>
</svg>
